<?xml version="1.0" encoding="UTF-8" standalone="no"?>
<!DOCTYPE svg PUBLIC "-//W3C//DTD SVG 1.1//EN" "http://www.w3.org/Graphics/SVG/1.1/DTD/svg11.dtd">
<svg width="100%" height="100%" viewBox="0 0 2000 2000" version="1.1" xmlns="http://www.w3.org/2000/svg" xmlns:xlink="http://www.w3.org/1999/xlink" xml:space="preserve" xmlns:serif="http://www.serif.com/" style="fill-rule:evenodd;clip-rule:evenodd;stroke-linejoin:round;stroke-miterlimit:2;">
    <path d="M2000,500L2000,1500C2000,1775.958 1775.958,2000 1500,2000L500,2000C224.042,2000 0,1775.958 0,1500L0,500C0,224.042 224.042,0 500,0L1500,0C1775.958,0 2000,224.042 2000,500Z" style="fill:white;"/>
    <g transform="matrix(3.153366,0,0,2.374557,-6140.490303,-3561.231099)">
        <path d="M2437.246,2117.128C2436.499,2116.701 2435.769,2116.185 2435.064,2115.578C2428.303,2109.756 2426.373,2097.739 2430.757,2088.76C2432.071,2086.069 2442.135,2065.939 2454.879,2055.03C2466.994,2044.66 2480.922,2041.701 2494.176,2054.67C2506.666,2066.891 2508.299,2083.781 2503.234,2100.575C2497.831,2118.488 2482.677,2135.563 2471.687,2139.781C2454.679,2146.309 2442.571,2133.641 2437.246,2117.128ZM2474.143,2085.326C2474.075,2086.698 2473.895,2088.082 2473.595,2089.457C2473.169,2091.411 2472.53,2093.209 2471.723,2094.817C2472.905,2093.09 2473.991,2091.205 2474.895,2089.292C2475.396,2088.23 2475.912,2086.526 2476.225,2085.409C2475.531,2085.02 2474.831,2085.068 2474.143,2085.326Z"/>
    </g>
    <g transform="matrix(1.552108,0,0,1.144589,-213.117118,-364.533584)">
        <path d="M424.292,1629.743C424.402,1630.278 424.509,1630.815 424.61,1631.353C425.16,1634.283 425.376,1637.317 425.596,1640.326C425.7,1641.748 426.245,1649.2 425.607,1658.196C425.507,1659.604 424.982,1667.002 423.125,1675.555C421.281,1684.046 418.771,1690.656 418.296,1691.908C415.288,1699.829 411.909,1705.652 411.265,1706.762C407.155,1713.845 402.978,1718.695 402.18,1719.622C397.034,1725.595 392.122,1729.289 391.185,1729.993C390.222,1730.717 385.153,1734.528 378.541,1737.334C377.514,1737.769 372.127,1740.055 365.367,1740.993C364.319,1741.139 358.83,1741.901 352.2,1741.052C351.162,1740.92 345.711,1740.222 339.405,1737.709C333.145,1735.214 328.269,1731.806 327.345,1731.16C321.503,1727.077 317.204,1722.48 316.386,1721.605C311.158,1716.014 307.575,1710.326 306.891,1709.24C302.478,1702.235 299.745,1695.54 299.225,1694.264C296.985,1688.777 295.895,1684.881 295.658,1684.035C283.306,1639.888 295.921,1600.958 303.671,1580.725C315.608,1549.561 336.713,1511.343 368.081,1454.08C368.651,1453.04 369.244,1452.021 369.791,1450.958C369.794,1450.952 375.836,1437.163 381.02,1425.249C410.155,1358.301 444.154,1277.798 479.6,1183.418C524.401,1064.133 553.361,972.363 556.06,964.584C556.339,963.779 559.132,955.729 559.544,954.515C559.832,953.665 560.096,952.801 560.395,951.958C561.159,949.806 561.824,947.578 562.732,945.532C563.167,944.554 565.487,939.331 569.593,934.705C570.24,933.975 573.698,930.08 578.697,927.546C579.485,927.146 583.694,925.012 589.028,924.85C589.869,924.825 594.36,924.689 599.434,926.917C600.234,927.268 604.506,929.144 608.755,933.511C609.425,934.199 613.003,937.877 615.954,943.895C616.42,944.844 618.904,949.912 620.229,956.91C620.666,959.218 620.92,961.589 621.108,963.958C621.213,965.279 621.937,1008.489 622.246,1061.907C623.068,1204.037 620.275,1241.432 635.897,1394.039C635.988,1394.925 636.057,1394.901 636.426,1396.387C637.014,1398.749 637.599,1401.095 638.18,1403.415C648.03,1373.246 661.131,1333.53 676.94,1286.657C677.336,1285.482 677.754,1284.321 678.129,1283.133C679.002,1280.371 712.676,1156.817 765.333,982.039C783.726,920.99 794.173,887.485 796.729,879.289C830.341,771.49 857.128,689.848 868.353,655.719C868.377,655.646 877.606,628.413 889.315,594.463C900.416,562.275 901.114,560.377 902.192,557.447C903.85,552.937 913.473,526.754 924.884,496.251C925.304,495.127 925.697,493.983 926.146,492.879C926.148,492.874 929.701,484.876 934.239,474.714C934.865,473.312 935.495,471.914 936.117,470.51C936.669,469.264 937.176,467.981 937.761,466.764C939.536,463.073 941.158,459.221 943.195,455.788C945.233,452.355 947.498,449.15 949.94,446.243C952.382,443.336 955.02,440.707 957.795,438.413C960.569,436.12 963.501,434.145 966.525,432.533C969.549,430.921 972.688,429.659 975.871,428.776C979.055,427.893 982.306,427.383 985.554,427.255C988.802,427.128 992.07,427.383 995.285,428.016C998.5,428.648 1001.687,429.661 1004.774,431.034C1007.862,432.406 1010.872,434.148 1013.739,436.22C1016.606,438.292 1019.351,440.71 1021.912,443.42C1024.474,446.13 1026.871,449.152 1029.05,452.419C1031.229,455.685 1033.207,459.221 1034.94,462.947C1036.672,466.673 1038.172,470.618 1039.406,474.692C1040.641,478.767 1041.618,483.002 1042.317,487.304C1043.485,494.494 1043.651,494.5 1043.566,501.86C1043.548,503.474 1043.616,505.317 1043.601,506.399C1043.462,516.72 1043.849,534.034 1043.321,561.267C1043.317,561.443 1042.643,586.16 1039.877,625.806C1036.813,669.725 1033.101,706.043 1032.39,712.999C1022.784,806.989 1009.926,898.632 1008.767,907.597C1008.657,908.442 1005.262,971.688 997.13,1080.785C996.107,1094.509 994.598,1118.105 989.372,1186.53C987.949,1205.162 986.334,1226.869 984.335,1256.408C984.297,1256.966 984.233,1257.521 984.222,1258.081C984.222,1258.082 984.291,1270.605 984.432,1285.609C985.677,1417.698 990.091,1519.991 993.164,1580.297C993.173,1580.477 995.086,1615.552 998.182,1659.782C1002.905,1727.261 1007.508,1775.849 1010.489,1804.918C1012.024,1811.166 1012.707,1816.083 1012.866,1817.227C1013.783,1823.827 1013.927,1823.837 1013.746,1830.55C1013.745,1830.61 1013.742,1830.605 1013.692,1831.289C1013.559,1831.307 1013.426,1831.326 1013.293,1831.344C1013.579,1834.003 1013.761,1835.749 1013.823,1836.574C1014.167,1841.135 1013.87,1847.875 1013.797,1848.976C1013.636,1851.426 1013.455,1853.876 1013.185,1856.309C1013.019,1857.801 1012.787,1859.283 1012.492,1860.738C1011.55,1865.393 1010.742,1870.117 1009.477,1874.629L1004.92,1887.732C1002.694,1892.117 1000.734,1896.775 998.241,1900.888C995.747,1905.001 992.985,1908.839 990.014,1912.319C987.043,1915.8 983.841,1918.947 980.478,1921.695C977.115,1924.442 973.566,1926.809 969.908,1928.743C966.25,1930.678 962.457,1932.195 958.61,1933.261L946.91,1935.118C943.277,1934.884 939.619,1935.037 936.011,1934.416C932.403,1933.794 928.82,1932.783 925.329,1931.401C921.838,1930.019 918.416,1928.258 915.128,1926.149C911.841,1924.041 908.666,1921.573 905.663,1918.79L897.166,1909.505C895.134,1906.542 892.957,1903.75 891.07,1900.615C889.184,1897.48 887.444,1894.173 885.872,1890.734C884.299,1887.295 882.997,1883.64 881.656,1880.025C880.855,1877.866 880.029,1875.706 879.447,1873.421C878.556,1869.923 877.907,1866.318 877.248,1862.727C876.579,1859.077 875.998,1853.048 875.917,1852.201C875.627,1849.191 875.599,1848.654 875.088,1845.011C874.983,1844.264 874.806,1843.53 874.77,1842.771C874.62,1839.568 874.491,1836.358 874.531,1833.149C874.55,1831.649 874.648,1823.781 876.164,1814.523C876.289,1813.763 876.693,1811.296 877.457,1807.879C879.78,1766.17 884.855,1688.248 895.734,1579.72C898.395,1553.177 909.496,1430.243 934.207,1255.12C934.358,1254.052 934.536,1252.99 934.661,1251.915C934.726,1251.351 936.343,1225.943 939.919,1179.553C941.326,1161.3 944.015,1126.408 947.302,1079.954C947.303,1079.931 951.891,1012.098 956.016,933.901C956.672,921.485 957.155,911.869 957.6,902.894C957.647,901.95 957.603,901.951 957.507,898.563C955.476,827.088 953.1,775.264 951.095,738.449L925.056,796.574C894.058,865.992 873.547,913.378 854.62,956.927C787.661,1110.988 738.368,1232.082 710.665,1301.03C710.419,1301.642 710.153,1302.239 709.929,1302.865C709.076,1305.239 698.764,1336.117 697.797,1339.011C670.767,1419.95 652.443,1477.604 652.103,1478.574C651.683,1479.772 651.245,1480.966 650.71,1482.077C646.44,1490.943 639.851,1492.326 638.723,1492.562C631.006,1494.182 625.844,1488.46 624.96,1487.481C621.473,1483.617 620.054,1478.83 619.793,1477.952C619.428,1476.721 619.175,1475.433 618.93,1474.148C618.223,1470.433 618.102,1468.722 618.068,1468.243C616.837,1450.838 615.192,1424.343 614.955,1420.524C614.237,1408.967 613.75,1400.592 613.748,1400.563C613.689,1399.825 602.085,1343.972 593.257,1288.325C585.07,1236.718 580.937,1196.683 575.773,1143.017C561.842,1191.167 546.399,1241.984 528.862,1296.569C500.218,1385.726 474.407,1457.682 454.907,1511.592C454.735,1512.068 454.537,1512.528 454.39,1513.019C454.033,1514.219 446.112,1543.38 445.394,1546.021C438.184,1572.562 428.803,1607.21 424.292,1629.743ZM420.665,1614.057L420.708,1614.033L420.586,1613.641C420.612,1613.78 420.638,1613.919 420.665,1614.057Z"/>
    </g>
</svg>
