<?xml version="1.0" encoding="UTF-8" standalone="no"?>
<!DOCTYPE svg PUBLIC "-//W3C//DTD SVG 1.1//EN" "http://www.w3.org/Graphics/SVG/1.1/DTD/svg11.dtd">
<svg width="100%" height="100%" viewBox="0 0 2400 2400" version="1.1" xmlns="http://www.w3.org/2000/svg" xmlns:xlink="http://www.w3.org/1999/xlink" xml:space="preserve" xmlns:serif="http://www.serif.com/" style="fill-rule:evenodd;clip-rule:evenodd;stroke-linecap:square;stroke-linejoin:round;stroke-miterlimit:1.5;">
    <g transform="matrix(2.121372,0,0,2.121372,-3527.526722,-2763.532686)">
        <path d="M2135.168,1811.752C2134.232,1814.96 2133.266,1818.308 2132.269,1821.8C2121.919,1858.064 2116.155,1881.625 2106.283,1911.483C2105.96,1912.461 2106.133,1912.503 2103.367,1924.015C2097.624,1947.918 2090.98,1969.747 2088.397,1978.73C2082.411,1999.553 2074.175,2027.091 2070.89,2038.308C2070.197,2040.673 2068.837,2042.201 2068.583,2042.486C2065.344,2046.122 2060.916,2046.176 2060.182,2046.185C2056.225,2046.233 2053.279,2044.391 2052.755,2044.064C2052.118,2043.666 2048.287,2041.271 2047.285,2036.43C2046.797,2034.073 2047.261,2032.147 2047.348,2031.786C2047.539,2030.994 2047.866,2030.24 2048.177,2029.487C2048.351,2029.068 2061.948,2001.754 2074.674,1972.448C2074.709,1972.368 2081.536,1956.536 2088.13,1938.785C2092.729,1926.404 2095.811,1916.909 2097.885,1910.197C2098.148,1909.349 2098.114,1909.342 2098.281,1908.472C2103.527,1881.233 2106.324,1853.156 2109.278,1792.049C2110.3,1770.902 2110.827,1755.339 2111.115,1747.481C2111.103,1747.453 2111.092,1747.425 2111.079,1747.395L2111.118,1747.397C2111.244,1743.971 2111.323,1742.031 2111.379,1741.758C2111.628,1740.538 2111.932,1739.321 2112.359,1738.151C2113.655,1734.6 2115.681,1732.144 2116.06,1731.684C2118.466,1728.766 2121.194,1727.123 2121.705,1726.816C2124.946,1724.865 2128.067,1724.224 2128.652,1724.104C2132.359,1723.343 2135.517,1723.778 2136.108,1723.859C2139.858,1724.376 2142.692,1725.838 2143.223,1726.111C2145.073,1727.066 2145.145,1726.975 2146.692,1728.372C2147.52,1729.119 2148.417,1729.796 2149.174,1730.615C2150.021,1731.531 2150.802,1732.516 2151.488,1733.558C2151.815,1734.057 2153.564,1736.719 2154.47,1740.391C2154.769,1741.6 2154.937,1742.842 2155.055,1744.083C2155.093,1744.474 2154.414,1745.796 2153.311,1749.643L2154.759,1749.72C2154.393,1750.826 2154.05,1751.939 2153.685,1753.046C2152.893,1755.444 2151.665,1759.028 2150.026,1763.951C2148.5,1771.662 2147.365,1778.646 2147.256,1779.476C2147.245,1779.557 2146.533,1785.901 2145.96,1792.632C2144.722,1807.171 2144.472,1818.119 2144.397,1820.857C2144.382,1821.401 2144.33,1821.945 2144.36,1822.487C2144.367,1822.613 2146.244,1840.299 2149.987,1877.735C2150.613,1883.995 2150.628,1883.991 2152.086,1897.663L2153.852,1914.374C2162.244,1888.992 2178.917,1838.985 2208.223,1743.958C2240.755,1638.47 2269.511,1539.222 2270.866,1534.609L2295.878,1450.128C2295.879,1450.124 2301.813,1430.874 2309.881,1404.63C2310.46,1402.748 2316.507,1383.079 2317.173,1381.119C2317.581,1379.917 2318.082,1378.741 2318.681,1377.623C2320.501,1374.23 2322.899,1372.046 2323.348,1371.637C2326.196,1369.043 2329.187,1367.783 2329.746,1367.547C2333.298,1366.051 2336.539,1365.859 2337.146,1365.824C2340.995,1365.596 2344.116,1366.496 2344.7,1366.665C2345.922,1367.018 2347.118,1367.476 2348.263,1368.03C2349.408,1368.584 2350.498,1369.255 2351.545,1369.978C2351.555,1369.985 2354.443,1372.448 2354.449,1372.455C2355.302,1373.4 2356.162,1374.347 2356.889,1375.391C2357.237,1375.89 2359.095,1378.557 2360.12,1382.278C2360.457,1383.504 2360.691,1384.764 2360.817,1386.03C2360.942,1387.296 2360.92,1388.575 2360.87,1389.846C2360.853,1390.269 2358.456,1420.934 2358.392,1421.694C2358.357,1422.099 2354.415,1459.861 2354.353,1460.377L2343.972,1545.136C2343.318,1550.483 2343.314,1550.482 2335.418,1611.922C2333.166,1629.445 2333.141,1629.441 2332.012,1638.806C2328.071,1671.479 2325.417,1692.83 2325.402,1692.974C2324.839,1698.264 2321.453,1732.148 2315.6,1784.071C2313.818,1799.881 2310.928,1827.771 2300.414,1914.878C2300.045,1917.935 2286.104,2035.115 2283.614,2057.238C2279.277,2095.782 2277.806,2109.465 2277.558,2111.838C2275.585,2130.729 2273.975,2146.441 2273.969,2146.496C2273.817,2148.076 2272.188,2170.457 2272.036,2172.54C2271.878,2174.707 2270.303,2196.357 2270.105,2199.624C2268.737,2222.252 2267.304,2250.738 2267.08,2255.184C2266.036,2275.943 2265.954,2278.266 2265.884,2280.274C2265.862,2280.885 2265.547,2289.68 2265.184,2301.178C2266.188,2301.546 2267.198,2301.916 2267.2,2301.917C2268.402,2302.661 2269.684,2303.289 2270.807,2304.148C2271.818,2304.921 2277.584,2309.331 2278.806,2317.89C2279.401,2322.057 2278.54,2325.402 2278.378,2326.034C2278.025,2327.403 2277.505,2328.73 2276.919,2330.017C2275.136,2333.931 2273.298,2337.825 2271.278,2341.623C2268.475,2346.894 2265.426,2352.031 2262.457,2357.21C2261.883,2358.21 2261.335,2359.233 2260.649,2360.16C2260.322,2360.603 2258.573,2362.968 2255.664,2364.897C2255.207,2365.2 2252.765,2366.82 2249.383,2367.638C2248.852,2367.766 2246.014,2368.453 2242.569,2368.068C2242.028,2368.008 2239.137,2367.685 2236.041,2366.153C2235.555,2365.912 2232.957,2364.626 2230.579,2362.138C2230.205,2361.747 2228.209,2359.659 2226.829,2356.52C2226.612,2356.027 2225.453,2353.392 2225.228,2349.982C2225.154,2348.862 2225.179,2347.731 2225.3,2346.614C2225.503,2344.74 2225.884,2342.889 2226.196,2341.029C2226.68,2338.149 2229.928,2320.185 2237.102,2277.366C2238.311,2270.152 2248.889,2201.013 2249.499,2196.648L2256.622,2145.568C2256.886,2143.676 2257.321,2139.365 2260.662,2109.994L2266.677,2055.344L2281.663,1918.525C2281.685,1918.324 2285.798,1880.155 2289.635,1842.428C2294.014,1799.368 2295.887,1778.643 2296.389,1773.093C2300.499,1727.608 2303.375,1691.112 2303.42,1690.356C2305.573,1653.823 2306.745,1629.198 2306.753,1629.026C2308.727,1581.369 2309.465,1552.193 2309.803,1542.456C2309.968,1537.715 2310.124,1533.104 2310.271,1528.641C2308.637,1532.967 2306.922,1537.515 2305.123,1542.285C2301.939,1550.727 2290.883,1579.244 2266.841,1642.494C2242.988,1705.246 2236.1,1723.646 2198.335,1824.163L2164.469,1913.819C2161.138,1922.649 2158.174,1931.035 2157.643,1932.538C2156.042,1937.069 2156.068,1937.078 2155.92,1937.468C2155.829,1937.709 2155.736,1937.952 2155.615,1938.179C2155.473,1938.444 2154.641,1939.997 2152.632,1940.457C2152.34,1940.524 2150.627,1940.916 2148.964,1939.706C2147.299,1938.494 2147.15,1936.751 2147.124,1936.453C2146.986,1934.828 2143.527,1888.627 2143.035,1882.666C2141.873,1868.58 2139.6,1842.906 2139.294,1839.449C2138.536,1830.89 2137.834,1823.135 2137.833,1823.123C2137.832,1823.12 2136.768,1818.186 2135.168,1811.752Z"/>
    </g>
    <g transform="matrix(1.265779,0,0,1.265779,-2794.727549,-563.960825)">
        <path d="M3395.79,1714.601C3373.189,1707.065 3402.149,1775.889 3430.163,1731.857C3447.211,1705.062 3438.601,1686.157 3416.309,1686.364C3384.194,1686.661 3361.573,1726.256 3358.672,1731.334" style="fill:none;stroke:black;stroke-width:17.11px;"/>
    </g>
</svg>
