<?xml version="1.0" encoding="UTF-8" standalone="no"?>
<!DOCTYPE svg PUBLIC "-//W3C//DTD SVG 1.1//EN" "http://www.w3.org/Graphics/SVG/1.1/DTD/svg11.dtd">
<svg width="100%" height="100%" viewBox="0 0 4000 2400" version="1.1" xmlns="http://www.w3.org/2000/svg" xmlns:xlink="http://www.w3.org/1999/xlink" xml:space="preserve" xmlns:serif="http://www.serif.com/" style="fill-rule:evenodd;clip-rule:evenodd;stroke-linecap:square;stroke-linejoin:round;stroke-miterlimit:1.5;">
    <g transform="matrix(2.121372,0,0,2.121372,-694.349776,-2853.518419)">
        <path d="M495.453,1760.857C485.854,1795.519 472.039,1842.804 454.489,1895.679C453.239,1899.447 435.164,1963.257 409.605,2034.523C404.734,2048.106 401.103,2057.731 401.067,2057.839C401.062,2057.856 396.107,2078.421 391.661,2098.351C391.261,2100.146 387.326,2117.927 387.283,2117.997C386.361,2119.516 385.584,2121.134 384.515,2122.554C383.475,2123.936 382.282,2125.212 380.989,2126.361C379.716,2127.492 378.32,2128.497 376.852,2129.362C375.394,2130.22 373.844,2130.94 372.249,2131.506C370.654,2132.072 368.997,2132.489 367.323,2132.742C365.639,2132.996 363.922,2133.094 362.22,2133.018C360.492,2132.941 358.762,2132.702 357.084,2132.284C357.076,2132.282 352.058,2130.488 352.054,2130.486C350.564,2129.577 348.975,2128.813 347.583,2127.759C346.222,2126.727 344.967,2125.544 343.837,2124.262C342.719,2122.993 341.727,2121.603 340.873,2120.143C340.021,2118.684 339.306,2117.137 338.741,2115.545C338.174,2113.947 337.753,2112.289 337.493,2110.614C337.231,2108.924 337.12,2107.202 337.18,2105.493C337.241,2103.758 337.459,2102.018 337.853,2100.327C338.814,2096.2 339.294,2095.6 339.561,2095.266C347.816,2084.95 359.497,2070.167 374.348,2046.928C374.639,2046.473 374.619,2046.463 374.851,2045.974C391.939,2009.916 413.987,1959.31 438.102,1892.414C439.104,1889.633 439.056,1889.618 439.952,1886.801C468.51,1797.018 486.067,1724.445 490.971,1704.166C491.106,1703.609 491.217,1703.046 491.376,1702.495C491.522,1701.987 491.674,1701.478 491.885,1700.994C493.567,1697.128 496.982,1695.987 497.567,1695.792C498.531,1695.469 498.532,1695.457 499.548,1695.386C500.912,1695.29 500.92,1695.214 502.265,1695.461C502.871,1695.572 506.41,1696.222 508.617,1699.811C508.749,1700.026 509.454,1701.174 509.797,1702.736C509.91,1703.251 509.972,1703.778 510.006,1704.305C510.011,1704.375 510.23,1716.741 510.371,1750.785C510.46,1772.492 510.475,1787.345 511.072,1802.356C511.076,1802.464 511.643,1812.568 513.212,1826.771C514.724,1840.467 516.911,1855.615 519.129,1869.737C523.182,1853.324 527.277,1838.448 533.464,1819.595C534.685,1815.873 538.824,1801.437 553.462,1760.49C572.099,1708.357 598.641,1638.278 640.353,1524.73C643.077,1517.313 643.096,1517.321 645.881,1509.928C649.781,1499.575 653.657,1489.213 657.578,1478.867C661.758,1467.838 665.911,1456.799 670.184,1445.805C670.473,1445.062 672.072,1440.947 676.675,1438.23C680.031,1436.248 683.323,1436.116 683.927,1436.092C687.83,1435.937 690.797,1437.385 691.342,1437.65C694.861,1439.367 696.792,1442.053 697.147,1442.546C697.644,1443.238 698.086,1443.974 698.464,1444.739C699.351,1446.535 699.296,1446.563 699.708,1448.524C700.086,1450.329 700.069,1450.337 700.02,1452.182C700.013,1452.461 700.037,1452.463 697.64,1480.675C697.259,1485.167 696.848,1489.982 696.848,1489.989L684.543,1608.848C684.521,1609.073 683.485,1620.056 682.106,1633.781C681.674,1638.087 681.549,1640.388 680.085,1656.349C679.678,1660.782 678.064,1685.601 673.244,1734.18L662.226,1844.027C660.497,1861.582 658.065,1888.612 657.716,1892.49C656.816,1902.488 652.153,1954.304 647.479,2017.55C644.63,2056.103 642.904,2085.722 642.11,2099.682C642.096,2099.934 641.12,2117.5 640.094,2140.191C633.556,2284.926 636.746,2370.178 635.102,2388.12C634.857,2390.786 634.289,2396.835 629.463,2401.587C629.138,2401.906 627.372,2403.644 624.819,2404.882C622.042,2406.228 619.507,2406.497 619.028,2406.548C618.652,2406.587 616.665,2406.798 614.297,2406.403C613.867,2406.331 611.62,2405.956 609.133,2404.67C603.774,2401.898 601.531,2397.053 601.365,2396.726C599.544,2393.142 598.411,2388.543 595.193,2369.615C595.083,2368.974 594.888,2367.701 593.602,2358.717C593.348,2356.945 593.439,2355.409 593.456,2355.122C593.519,2354.047 593.88,2347.912 599.304,2342.998C600.692,2341.741 602.111,2340.873 603.221,2340.305C603.471,2334.505 603.734,2328.437 604.011,2322.29C608.442,2223.923 614.117,2152.782 620.133,2084.966C621.178,2073.196 624.934,2029.981 634.196,1944.791C638.822,1902.242 642.11,1874.156 647.788,1826.327C652.612,1785.684 656.793,1751.962 659.575,1726.191C662.238,1701.519 664.356,1679.697 666.286,1657.072C666.62,1653.148 667.747,1634.647 667.753,1634.524C668.089,1627.197 668.744,1610.859 668.849,1606.485C669.892,1562.993 669.547,1530.134 669.509,1525.636C668.951,1526.929 668.407,1528.183 667.763,1529.667C663.001,1540.638 594.099,1695.987 561.578,1777.913C554.303,1796.237 549.039,1810.339 544.869,1822.289C544.776,1822.555 540.503,1835.19 535.945,1851.737C530.116,1872.897 524.771,1897.314 523.832,1901.074C523.572,1902.115 523.134,1902.797 523.047,1902.932C521.586,1905.205 519.301,1905.533 518.911,1905.589C516.237,1905.972 514.493,1904.458 514.196,1904.201C513.021,1903.181 512.581,1901.943 512.5,1901.716C512.387,1901.398 512.31,1901.067 512.244,1900.736C512.243,1900.729 510.319,1889.586 509.302,1883.57C502.947,1845.977 500.339,1825.121 498.805,1804.352C498.57,1801.172 498.001,1797.26 496.398,1774.404C496.046,1769.373 495.737,1764.931 495.453,1760.857Z"/>
    </g>
    <g transform="matrix(2.121372,0,0,2.121372,-823.708764,-2826.809163)">
        <path d="M865.389,1951.681C861.382,1965.832 855.794,1984.334 849.283,2002.324C827.578,2062.285 810.201,2077.158 796.857,2079.091C782.593,2081.157 773.072,2068.118 769.081,2061.923C764.961,2055.53 756.633,2037.749 755.515,1968.631C755.116,1943.936 755.966,1924.615 755.957,1924.277C755.952,1924.041 755.098,1918.424 755.02,1917.915C752.177,1899.218 750.001,1889.553 750.728,1884.687C751.527,1879.344 755.19,1876.046 757.562,1874.616C757.957,1874.378 760.046,1873.119 762.976,1872.668C765.282,1872.314 767.26,1872.629 767.627,1872.688C768.51,1872.829 773.547,1873.633 777.139,1878.546C777.675,1879.28 780.823,1883.584 779.793,1889.591C779.132,1893.444 777.01,1896.124 775.481,1897.624C773.606,1902.28 770.451,1911.28 767.515,1924.442C767.431,1924.82 767.453,1924.822 767.439,1925.209C767.163,1932.839 766.249,1960.974 767.644,1989.574C770.324,2044.495 778.27,2054.4 779.534,2056.274C788.079,2068.945 794.077,2067.519 795.973,2067.083L795.989,2067.079C800.342,2065.924 816.604,2059.699 839.837,1990.746C848.638,1964.627 855.437,1938.375 858.958,1924.248C859.063,1923.829 859.067,1923.83 859.442,1920.995C861.768,1903.452 862.709,1889.62 863.095,1883.29C863.089,1882.829 863.081,1882.304 863.072,1881.69L863.19,1881.704C863.268,1880.398 863.311,1879.654 863.336,1879.545C863.49,1878.871 863.674,1878.202 863.924,1877.558C864.682,1875.605 865.819,1874.256 866.033,1874.003C866.989,1872.868 867.008,1872.878 868.216,1872.014C869.547,1871.063 869.526,1871.008 871.05,1870.414C871.803,1870.121 876.184,1868.415 881.135,1870.828C881.86,1871.181 886.083,1873.239 887.669,1878.508C887.869,1879.169 888.013,1879.849 888.101,1880.534C888.189,1881.219 888.213,1881.913 888.195,1882.603C888.119,1885.382 883.286,1931.362 883.439,1963.459C883.516,1979.616 884.779,1989.182 885.983,1995.836C886.143,1996.724 886.821,1999.362 886.9,1999.667C888.678,2006.587 890.961,2012.855 893.798,2019.362C897.219,2027.206 900.729,2033.967 906.72,2045.747C918.788,2014.264 925.715,1994.173 929.969,1973.929C930.974,1969.147 931.813,1964.473 932.549,1959.875C932.635,1959.339 932.748,1958.632 933.228,1953.126C934.598,1937.395 935.429,1919.136 936.986,1887.112C937.003,1886.765 937.148,1883.786 937.226,1882.773C937.343,1881.262 938.179,1879.717 938.311,1879.473C939.996,1876.358 942.698,1875.119 943.184,1874.896C943.687,1874.666 944.212,1874.484 944.742,1874.33C960.034,1869.895 975.601,1866.333 990.649,1861.131C1005.552,1855.979 1019.845,1849.209 1034.469,1843.313C1038.792,1841.571 1042.442,1843.263 1043.066,1843.553C1047.482,1845.601 1048.8,1849.595 1049.025,1850.278C1049.223,1850.877 1049.37,1851.495 1049.47,1852.119C1049.491,1852.248 1049.601,1853.937 1049.595,1854.023C1049.538,1854.888 1046.722,1882.756 1045.381,1917.8C1045.379,1917.858 1044.909,1932.932 1045.099,1949.821C1045.438,1979.919 1047.574,1996.256 1049.148,2004.97C1049.296,2005.793 1049.449,2008.074 1050.053,2011.771C1052.071,2024.127 1055.4,2028.122 1057.253,2028.494C1060.994,2029.243 1072.544,2022.226 1090.897,1986.536C1091.153,1986.037 1093.645,1980.137 1096.38,1973.013C1105.189,1950.064 1111.212,1928.774 1111.713,1927.379C1111.818,1927.086 1112.429,1925.386 1114.42,1924.584C1116.399,1923.786 1118.036,1924.586 1118.317,1924.723C1120.238,1925.661 1120.741,1927.417 1120.827,1927.718C1121.099,1928.667 1124.751,1953.108 1133.001,1976.228C1135.45,1983.089 1137.438,1987.39 1137.486,1987.53C1138.846,1991.518 1141.634,2000.119 1146.807,2008.622C1151.091,2015.663 1157.081,2022.817 1165.715,2023.251C1184.6,2024.201 1216.601,1994.444 1253.013,1923.974C1264.929,1900.913 1274.893,1878.159 1282.408,1859.745C1279.925,1848.073 1277.546,1834.806 1275.298,1819.737C1273.894,1810.324 1265.65,1756.23 1261.406,1663.658C1260.884,1652.28 1260.46,1640.662 1260.416,1638.025C1259.336,1573.301 1268.295,1520.354 1271.965,1500.362C1271.968,1500.35 1274.53,1488.77 1278.477,1474.34C1281.934,1461.703 1301.789,1389.537 1328.904,1368.475C1341.576,1358.63 1354.522,1360.927 1362.817,1369.697C1373.207,1380.681 1378.705,1404.036 1379.483,1447.354C1381.066,1535.446 1365.298,1617.077 1358.327,1651.54C1347.019,1707.439 1334.436,1748.631 1332.154,1756.721C1331.566,1758.805 1327.948,1771.841 1320.728,1794.937C1312.74,1820.488 1304.918,1842.394 1298.532,1859.226C1301.869,1879.155 1306.162,1896.354 1311.618,1909.111C1318.489,1925.175 1324.863,1928.512 1327.376,1929.572C1328.049,1929.994 1328.815,1930.295 1329.393,1930.838C1329.658,1931.087 1331.182,1932.519 1331.271,1934.969C1331.284,1935.343 1331.362,1937.498 1329.63,1939.344C1327.951,1941.133 1325.862,1941.208 1325.499,1941.221C1324.082,1941.273 1324.076,1941.202 1322.748,1940.702C1311.244,1936.371 1299.199,1922.325 1288.501,1884.617C1286.326,1889.891 1284.788,1893.462 1284.081,1895.112C1268.224,1932.143 1220.859,2035.72 1171.006,2042.082C1160.534,2043.418 1145.227,2041.067 1132.016,2021.899C1129.299,2017.957 1124.119,2009.593 1119.031,1994.163C1118.892,1993.742 1118.871,1993.747 1118.42,1991.695C1115.629,1978.993 1113.782,1964.5 1112.58,1948.876C1099.834,1977.062 1094.581,1986.728 1094.042,1988.004C1079.384,2022.738 1068.524,2038.946 1056.403,2038.678C1046.159,2038.451 1040.433,2026.479 1037.554,2019.327C1035.716,2014.761 1034.337,2010.174 1033.872,2008.62C1033.837,2008.505 1032.359,2002.337 1030.883,1991.697C1026.691,1961.483 1026.442,1924.728 1026.232,1916.283C1025.764,1897.399 1025.791,1880.187 1025.909,1868.539L957.646,1892.256C951.074,1928.796 949.176,1942.811 945.367,1961.312C945.119,1962.516 943.596,1974.493 939.437,1990.467C935.123,2007.034 928.929,2025.079 914.632,2062.819C914.377,2063.49 914.142,2064.17 913.867,2064.833C913.401,2065.96 912.856,2066.613 912.742,2066.75C910.844,2069.022 908.32,2069.149 907.887,2069.171C904.929,2069.321 903.122,2067.554 902.812,2067.251C902.546,2066.991 902.3,2066.708 902.081,2066.408C901.861,2066.108 901.677,2065.783 901.498,2065.457C901.445,2065.361 899.653,2061.786 894.898,2052.667C884.088,2031.933 876.696,2018.23 872.275,1999.525C871.331,1995.529 868.268,1985.63 866.179,1961.972C865.889,1958.687 865.627,1955.258 865.389,1951.681ZM766.304,1901.873C766.137,1901.931 765.96,1901.996 765.771,1902.068L766.315,1902.023L766.304,1901.873ZM1294.379,1828.95C1299.891,1814.05 1304.915,1798.928 1305.798,1796.27C1306.749,1793.411 1311.567,1779.15 1318.245,1755.893C1318.285,1755.754 1319.409,1752.091 1322.67,1739.445C1332.023,1703.171 1338.757,1670.015 1343.566,1641.512C1345.261,1631.468 1346.917,1619.84 1347.186,1617.952C1351.27,1589.277 1360.327,1518.675 1355.433,1444.447C1353.065,1408.53 1347.859,1395.726 1345.587,1391.376C1345.497,1391.202 1345.405,1391.033 1345.314,1390.87C1342.707,1393.511 1337.643,1399.954 1331.102,1414.808C1314.296,1452.973 1305.682,1505.2 1305.312,1506.994C1304.472,1511.073 1296.768,1543.106 1292.305,1587.15C1289.418,1615.643 1289.252,1635.555 1289.09,1640.433C1287.289,1694.461 1287.668,1768.76 1294.379,1828.95Z"/>
    </g>
    <g transform="matrix(2.121372,0,0,2.121372,-823.708764,-2826.809163)">
        <path d="M1488.145,2005.526C1480.785,2022.981 1470.731,2033.206 1465.093,2038.297C1461.829,2041.244 1458.078,2043.892 1457.441,2044.342C1453.888,2046.851 1445.435,2052.503 1432.566,2057.055C1421.242,2061.06 1396.283,2065.13 1379.01,2026.813C1376.292,2020.785 1374.076,2013.411 1373.719,2012.222C1372.488,2008.124 1371.65,2004.725 1371.332,2003.428C1371.33,2003.421 1370.369,1998.024 1369.573,1990.155C1369.257,1987.024 1368.977,1984.151 1368.757,1977.613C1368.41,1967.288 1368.719,1959.065 1368.841,1956.047C1368.849,1955.842 1369.652,1936.586 1372.169,1929.794C1372.992,1927.573 1374.255,1926.021 1375.708,1925.025C1375.108,1923.715 1374.641,1922.59 1374.278,1921.676C1374.273,1921.661 1373.491,1919.576 1372.755,1916.86C1369.289,1904.06 1371.353,1894.755 1373.097,1889.511C1374.576,1885.067 1376.447,1881.507 1380.526,1875.34C1387.044,1865.487 1404.01,1842.279 1428.859,1841.767C1432.295,1841.696 1435.723,1842.331 1436.311,1842.44C1469.053,1848.508 1493.02,1894.044 1497.009,1939.802C1497.473,1945.124 1498.337,1956.204 1496.736,1970.041C1496.643,1970.842 1495.758,1982.859 1491.551,1996.24C1536.825,2002.436 1571.402,1971.472 1585.598,1964.515C1585.966,1964.334 1586.339,1964.164 1586.34,1964.163C1586.722,1964.071 1587.093,1963.905 1587.485,1963.888C1587.665,1963.88 1588.7,1963.836 1589.599,1964.654C1590.528,1965.498 1590.573,1966.566 1590.581,1966.751C1590.632,1967.964 1589.935,1968.732 1589.815,1968.865C1589.27,1969.465 1589.209,1969.392 1588.487,1969.759C1574.46,1976.9 1538.363,2011.313 1488.145,2005.526ZM1387.443,1954.512C1388.252,1969.786 1390.036,1979.687 1390.679,1983.867C1392.061,1992.843 1393.523,1998.616 1393.582,1998.936C1393.773,1999.976 1394.914,2009.086 1397.971,2018.676C1399.569,2023.686 1404.237,2039.029 1415.538,2043.036C1421.63,2045.195 1427.795,2043.541 1432.727,2042.083C1445.323,2038.359 1453.904,2032.903 1460.07,2028.086C1469.367,2020.825 1475.682,2012.26 1480.007,2004.25C1475.429,2003.342 1470.744,2002.09 1465.957,2000.448C1449.348,1994.752 1436.806,1986.269 1427.576,1979.776C1418.651,1973.496 1402.419,1961.472 1389.571,1946.245C1389.564,1946.797 1389.555,1947.369 1389.544,1947.961C1389.542,1948.069 1389.519,1949.289 1389.515,1949.31C1389.344,1950.248 1389.347,1951.237 1388.999,1952.125C1388.661,1952.986 1388.134,1953.789 1387.495,1954.458C1387.478,1954.476 1387.46,1954.494 1387.443,1954.512ZM1484.334,1994.948C1486.025,1990.682 1487.167,1986.867 1487.96,1983.878C1489.193,1979.233 1489.974,1974.167 1490.105,1973.315C1490.512,1970.678 1490.761,1968.794 1490.99,1964.78C1492.016,1946.82 1489.071,1932.455 1487.726,1926.48C1478.621,1886.036 1453.732,1854.292 1430.06,1855.699C1424.591,1856.025 1409.099,1857.323 1391.598,1888.076C1390.344,1890.281 1386.581,1896.786 1387.953,1906.993C1388.547,1911.412 1389.868,1914.757 1390.413,1916.355C1397.272,1936.44 1418.017,1955.078 1429.101,1964.389C1432.656,1967.376 1440.847,1974.033 1447.721,1978.672C1460.463,1987.271 1472.718,1992.376 1484.334,1994.948Z"/>
    </g>
    <g transform="matrix(2.121372,0,0,2.121372,-823.708764,-2826.809163)">
        <path d="M1094.623,1811.62C1094.86,1811.817 1095.532,1812.376 1096.016,1812.772C1097.381,1813.887 1099.074,1815.356 1101.204,1817.853C1103.794,1820.888 1103.433,1825.454 1100.399,1828.044C1097.364,1830.634 1092.797,1830.273 1090.208,1827.238C1087.53,1824.101 1085.739,1823.146 1084.515,1821.965C1082.344,1819.871 1080.649,1817.624 1079.704,1810.687C1079.165,1806.734 1081.937,1803.087 1085.89,1802.548C1089.843,1802.009 1093.49,1804.781 1094.028,1808.734C1094.195,1809.955 1094.528,1811.26 1094.623,1811.62Z"/>
    </g>
    <g transform="matrix(2.121372,0,0,2.121372,-1121.692423,-2853.518419)">
        <path d="M2135.168,1811.752C2134.232,1814.96 2133.266,1818.308 2132.269,1821.8C2121.919,1858.064 2116.155,1881.625 2106.283,1911.483C2105.96,1912.461 2106.133,1912.503 2103.367,1924.015C2097.624,1947.918 2090.98,1969.747 2088.397,1978.73C2082.411,1999.553 2074.175,2027.091 2070.89,2038.308C2070.197,2040.673 2068.837,2042.201 2068.583,2042.486C2065.344,2046.122 2060.916,2046.176 2060.182,2046.185C2056.225,2046.233 2053.279,2044.391 2052.755,2044.064C2052.118,2043.666 2048.287,2041.271 2047.285,2036.43C2046.797,2034.073 2047.261,2032.147 2047.348,2031.786C2047.539,2030.994 2047.866,2030.24 2048.177,2029.487C2048.351,2029.068 2061.948,2001.754 2074.674,1972.448C2074.709,1972.368 2081.536,1956.536 2088.13,1938.785C2092.729,1926.404 2095.811,1916.909 2097.885,1910.197C2098.148,1909.349 2098.114,1909.342 2098.281,1908.472C2103.527,1881.233 2106.324,1853.156 2109.278,1792.049C2110.3,1770.902 2110.827,1755.339 2111.115,1747.481C2111.103,1747.453 2111.092,1747.425 2111.079,1747.395L2111.118,1747.397C2111.244,1743.971 2111.323,1742.031 2111.379,1741.758C2111.628,1740.538 2111.932,1739.321 2112.359,1738.151C2113.655,1734.6 2115.681,1732.144 2116.06,1731.684C2118.466,1728.766 2121.194,1727.123 2121.705,1726.816C2124.946,1724.865 2128.067,1724.224 2128.652,1724.104C2132.359,1723.343 2135.517,1723.778 2136.108,1723.859C2139.858,1724.376 2142.692,1725.838 2143.223,1726.111C2145.073,1727.066 2145.145,1726.975 2146.692,1728.372C2147.52,1729.119 2148.417,1729.796 2149.174,1730.615C2150.021,1731.531 2150.802,1732.516 2151.488,1733.558C2151.815,1734.057 2153.564,1736.719 2154.47,1740.391C2154.769,1741.6 2154.937,1742.842 2155.055,1744.083C2155.093,1744.474 2154.414,1745.796 2153.311,1749.643L2154.759,1749.72C2154.393,1750.826 2154.05,1751.939 2153.685,1753.046C2152.893,1755.444 2151.665,1759.028 2150.026,1763.951C2148.5,1771.662 2147.365,1778.646 2147.256,1779.476C2147.245,1779.557 2146.533,1785.901 2145.96,1792.632C2144.722,1807.171 2144.472,1818.119 2144.397,1820.857C2144.382,1821.401 2144.33,1821.945 2144.36,1822.487C2144.367,1822.613 2146.244,1840.299 2149.987,1877.735C2150.613,1883.995 2150.628,1883.991 2152.086,1897.663L2153.852,1914.374C2162.244,1888.992 2178.917,1838.985 2208.223,1743.958C2240.755,1638.47 2269.511,1539.222 2270.866,1534.609L2295.878,1450.128C2295.879,1450.124 2301.813,1430.874 2309.881,1404.63C2310.46,1402.748 2316.507,1383.079 2317.173,1381.119C2317.581,1379.917 2318.082,1378.741 2318.681,1377.623C2320.501,1374.23 2322.899,1372.046 2323.348,1371.637C2326.196,1369.043 2329.187,1367.783 2329.746,1367.547C2333.298,1366.051 2336.539,1365.859 2337.146,1365.824C2340.995,1365.596 2344.116,1366.496 2344.7,1366.665C2345.922,1367.018 2347.118,1367.476 2348.263,1368.03C2349.408,1368.584 2350.498,1369.255 2351.545,1369.978C2351.555,1369.985 2354.443,1372.448 2354.449,1372.455C2355.302,1373.4 2356.162,1374.347 2356.889,1375.391C2357.237,1375.89 2359.095,1378.557 2360.12,1382.278C2360.457,1383.504 2360.691,1384.764 2360.817,1386.03C2360.942,1387.296 2360.92,1388.575 2360.87,1389.846C2360.853,1390.269 2358.456,1420.934 2358.392,1421.694C2358.357,1422.099 2354.415,1459.861 2354.353,1460.377L2343.972,1545.136C2343.318,1550.483 2343.314,1550.482 2335.418,1611.922C2333.166,1629.445 2333.141,1629.441 2332.012,1638.806C2328.071,1671.479 2325.417,1692.83 2325.402,1692.974C2324.839,1698.264 2321.453,1732.148 2315.6,1784.071C2313.818,1799.881 2310.928,1827.771 2300.414,1914.878C2300.045,1917.935 2286.104,2035.115 2283.614,2057.238C2279.277,2095.782 2277.806,2109.465 2277.558,2111.838C2275.585,2130.729 2273.975,2146.441 2273.969,2146.496C2273.817,2148.076 2272.188,2170.457 2272.036,2172.54C2271.878,2174.707 2270.303,2196.357 2270.105,2199.624C2268.737,2222.252 2267.304,2250.738 2267.08,2255.184C2266.036,2275.943 2265.954,2278.266 2265.884,2280.274C2265.862,2280.885 2265.547,2289.68 2265.184,2301.178C2266.188,2301.546 2267.198,2301.916 2267.2,2301.917C2268.402,2302.661 2269.684,2303.289 2270.807,2304.148C2271.818,2304.921 2277.584,2309.331 2278.806,2317.89C2279.401,2322.057 2278.54,2325.402 2278.378,2326.034C2278.025,2327.403 2277.505,2328.73 2276.919,2330.017C2275.136,2333.931 2273.298,2337.825 2271.278,2341.623C2268.475,2346.894 2265.426,2352.031 2262.457,2357.21C2261.883,2358.21 2261.335,2359.233 2260.649,2360.16C2260.322,2360.603 2258.573,2362.968 2255.664,2364.897C2255.207,2365.2 2252.765,2366.82 2249.383,2367.638C2248.852,2367.766 2246.014,2368.453 2242.569,2368.068C2242.028,2368.008 2239.137,2367.685 2236.041,2366.153C2235.555,2365.912 2232.957,2364.626 2230.579,2362.138C2230.205,2361.747 2228.209,2359.659 2226.829,2356.52C2226.612,2356.027 2225.453,2353.392 2225.228,2349.982C2225.154,2348.862 2225.179,2347.731 2225.3,2346.614C2225.503,2344.74 2225.884,2342.889 2226.196,2341.029C2226.68,2338.149 2229.928,2320.185 2237.102,2277.366C2238.311,2270.152 2248.889,2201.013 2249.499,2196.648L2256.622,2145.568C2256.886,2143.676 2257.321,2139.365 2260.662,2109.994L2266.677,2055.344L2281.663,1918.525C2281.685,1918.324 2285.798,1880.155 2289.635,1842.428C2294.014,1799.368 2295.887,1778.643 2296.389,1773.093C2300.499,1727.608 2303.375,1691.112 2303.42,1690.356C2305.573,1653.823 2306.745,1629.198 2306.753,1629.026C2308.727,1581.369 2309.465,1552.193 2309.803,1542.456C2309.968,1537.715 2310.124,1533.104 2310.271,1528.641C2308.637,1532.967 2306.922,1537.515 2305.123,1542.285C2301.939,1550.727 2290.883,1579.244 2266.841,1642.494C2242.988,1705.246 2236.1,1723.646 2198.335,1824.163L2164.469,1913.819C2161.138,1922.649 2158.174,1931.035 2157.643,1932.538C2156.042,1937.069 2156.068,1937.078 2155.92,1937.468C2155.829,1937.709 2155.736,1937.952 2155.615,1938.179C2155.473,1938.444 2154.641,1939.997 2152.632,1940.457C2152.34,1940.524 2150.627,1940.916 2148.964,1939.706C2147.299,1938.494 2147.15,1936.751 2147.124,1936.453C2146.986,1934.828 2143.527,1888.627 2143.035,1882.666C2141.873,1868.58 2139.6,1842.906 2139.294,1839.449C2138.536,1830.89 2137.834,1823.135 2137.833,1823.123C2137.832,1823.12 2136.768,1818.186 2135.168,1811.752Z"/>
    </g>
    <g transform="matrix(1.265779,0,0,1.265779,-388.89325,-653.946558)">
        <path d="M3395.79,1714.601C3373.189,1707.065 3402.149,1775.889 3430.163,1731.857C3447.211,1705.062 3438.601,1686.157 3416.309,1686.364C3384.194,1686.661 3361.573,1726.256 3358.672,1731.334" style="fill:none;stroke:black;stroke-width:17.11px;"/>
    </g>
</svg>
